<?xml version="1.0" standalone="no"?>
<!DOCTYPE svg PUBLIC "-//W3C//DTD SVG 20010904//EN"
 "http://www.w3.org/TR/2001/REC-SVG-20010904/DTD/svg10.dtd">
<svg version="1.0" xmlns="http://www.w3.org/2000/svg"
 width="672.000000pt" height="672.000000pt" viewBox="0 0 672.000000 672.000000"
 preserveAspectRatio="xMidYMid meet">
<metadata>
Created by potrace 1.14, written by Peter Selinger 2001-2017
</metadata>
<g transform="translate(0.000000,672.000000) scale(0.100000,-0.100000)"
fill="#000000" stroke="none">
<path d="M3236 6083 c-1 -2 -145 -13 -176 -14 -8 0 -37 -4 -65 -9 -27 -5 -63
-11 -80 -14 -147 -24 -326 -80 -483 -150 -95 -43 -124 -58 -222 -114 -56 -33
-234 -155 -250 -172 -3 -3 -34 -30 -69 -60 -36 -30 -87 -79 -115 -109 -28 -30
-60 -64 -71 -75 -43 -44 -150 -184 -203 -266 -53 -81 -167 -302 -189 -365 -6
-16 -15 -39 -19 -50 -4 -11 -8 -22 -9 -25 -1 -3 -4 -12 -8 -20 -6 -18 -40
-120 -43 -135 -2 -5 -5 -20 -8 -33 -3 -13 -7 -31 -10 -40 -3 -9 -8 -33 -11
-52 -3 -19 -10 -53 -14 -75 -5 -22 -9 -47 -9 -55 -1 -8 -3 -24 -6 -35 -2 -11
-5 -37 -5 -57 -1 -35 -4 -39 -48 -58 -311 -136 -565 -333 -749 -578 -35 -48
-69 -92 -74 -99 -6 -7 -10 -15 -10 -18 0 -3 -15 -29 -33 -58 -28 -43 -77 -140
-117 -232 -12 -26 -60 -165 -65 -185 -1 -8 -8 -35 -15 -58 -53 -200 -69 -505
-35 -692 2 -14 7 -43 10 -65 9 -65 44 -205 65 -260 5 -11 18 -47 31 -80 93
-246 266 -496 479 -689 64 -58 223 -176 237 -176 7 0 13 -4 13 -9 0 -26 408
-201 505 -217 11 -1 52 -9 90 -18 39 -8 90 -18 115 -22 70 -12 3481 -16 3495
-4 7 5 15 7 18 4 17 -17 298 49 438 101 125 48 319 146 327 167 2 4 9 8 14 8
21 0 197 140 285 227 155 153 279 327 369 518 59 126 112 283 128 382 2 11 7
29 10 40 3 10 8 35 11 55 3 21 8 55 11 75 9 52 8 365 -1 438 -4 33 -14 89 -21
125 -19 84 -20 87 -35 140 -7 25 -13 50 -15 55 -29 125 -158 377 -271 530 -71
95 -235 266 -318 331 -27 21 -52 41 -55 44 -31 35 -380 230 -380 213 0 -3 -6
-1 -12 4 -7 5 -35 18 -63 28 -27 10 -53 20 -57 24 -3 3 -9 31 -12 62 -4 31 -9
67 -11 80 -3 13 -8 38 -11 54 -29 161 -99 367 -184 540 -57 117 -173 307 -191
313 -5 2 -9 8 -9 14 0 14 -142 178 -221 257 -71 70 -177 159 -254 212 -27 19
-51 37 -53 42 -2 4 -10 7 -18 7 -8 0 -14 3 -14 8 0 4 -17 16 -37 27 -21 11
-70 38 -110 61 -61 34 -162 81 -248 114 -11 4 -32 12 -47 18 -37 15 -224 68
-273 78 -22 4 -42 8 -45 9 -6 1 -102 16 -140 21 -80 11 -327 24 -334 17z m311
-223 c96 -13 96 -13 206 -39 100 -25 290 -91 295 -103 2 -4 10 -8 17 -8 14 0
200 -95 215 -110 3 -3 16 -11 30 -19 14 -8 66 -45 115 -82 386 -289 648 -733
720 -1219 10 -68 17 -176 18 -267 0 -51 3 -93 6 -93 23 -1 151 -33 221 -55
106 -34 302 -127 355 -168 6 -4 42 -31 80 -59 87 -64 227 -202 292 -288 123
-161 225 -370 264 -540 6 -25 13 -54 15 -65 21 -92 31 -210 29 -345 -2 -85 -6
-166 -9 -180 -3 -14 -9 -41 -12 -60 -48 -288 -206 -585 -424 -800 -90 -88
-119 -112 -232 -187 -151 -99 -313 -170 -481 -208 -177 -41 -190 -41 -1932
-39 -924 1 -1696 4 -1715 8 -19 3 -53 8 -75 12 -65 10 -70 12 -147 33 -448
126 -815 452 -990 881 -19 47 -38 96 -42 110 -44 159 -47 174 -62 300 -46 386
80 810 330 1115 57 70 183 195 195 195 6 0 11 4 11 8 0 5 26 27 57 50 32 23
63 46 69 51 56 46 246 136 387 182 l97 32 0 126 c1 128 1 140 21 271 15 98 14
94 44 206 44 167 134 373 220 502 19 30 35 58 35 63 0 5 3 9 8 9 4 0 18 17 32
38 91 139 305 341 480 454 41 26 80 51 85 55 25 20 217 108 305 140 253 95
593 131 867 93z"/>
<path d="M3578 4775 c-2 -2 -32 -6 -68 -9 -53 -6 -115 -18 -260 -51 -62 -14
-370 -132 -380 -145 -3 -4 -16 -11 -30 -15 -13 -4 -30 -14 -38 -21 -7 -8 -20
-14 -28 -14 -8 0 -14 -4 -14 -10 0 -5 -5 -10 -10 -10 -9 0 -102 -57 -140 -87
-271 -209 -443 -427 -583 -743 -16 -36 -65 -176 -72 -207 -3 -10 -9 -36 -14
-58 -57 -235 -62 -520 -12 -692 5 -18 7 -33 4 -33 -3 0 -1 -6 5 -13 6 -7 13
-24 15 -37 4 -26 6 -30 39 -117 11 -29 20 -55 19 -58 -1 -7 98 -196 120 -227
11 -14 19 -29 19 -32 0 -4 4 -12 10 -19 5 -7 37 -48 71 -92 34 -44 106 -123
159 -175 108 -104 101 -98 180 -155 30 -22 57 -42 60 -46 11 -14 204 -122 287
-160 82 -39 285 -116 326 -124 9 -2 21 -6 25 -9 5 -3 19 -7 33 -10 13 -3 53
-12 89 -21 121 -30 145 -35 240 -51 120 -20 232 -32 223 -24 -6 5 -82 31 -133
45 -3 1 -14 5 -25 10 -242 97 -347 151 -514 263 -69 46 -128 87 -131 90 -3 4
-30 27 -60 52 -123 99 -358 349 -378 400 -3 8 -8 17 -12 20 -11 8 -73 120
-104 184 -26 56 -71 184 -81 230 -10 47 -14 68 -19 84 -22 74 -28 335 -10 439
47 270 196 501 424 659 66 45 213 113 280 129 211 50 382 47 560 -10 41 -13
100 -35 130 -48 l55 -25 71 33 c104 48 378 138 488 161 11 2 64 13 117 24 54
11 113 21 133 22 20 2 36 7 36 12 0 10 -62 65 -123 110 -44 31 -174 96 -194
96 -7 0 -17 19 -23 43 -38 153 -116 267 -234 341 -47 30 -112 61 -128 61 -3 0
-10 3 -14 8 -4 4 -19 7 -34 7 -15 0 -30 3 -34 7 -3 4 -14 8 -24 10 -22 5 -290
12 -294 8z m312 -237 c117 -50 170 -199 112 -315 -42 -88 -111 -131 -211 -132
-169 -3 -284 177 -212 330 55 116 193 168 311 117z"/>
<path d="M3296 3823 c-1 -1 -24 -5 -52 -9 -61 -7 -75 -10 -94 -17 -8 -3 -39
-13 -69 -22 -186 -59 -360 -219 -453 -415 -58 -123 -71 -185 -71 -360 -1 -178
4 -223 37 -340 65 -233 175 -417 360 -605 104 -105 262 -235 285 -235 6 0 11
-3 11 -8 0 -4 17 -16 38 -27 20 -11 39 -23 42 -26 4 -5 117 -68 180 -100 29
-15 150 -69 155 -69 2 0 28 -11 57 -24 99 -44 403 -137 528 -162 14 -3 33 -7
42 -10 9 -3 25 -6 35 -8 140 -27 247 -46 283 -51 25 -4 59 -9 75 -11 17 -2 41
-6 55 -9 14 -2 51 -7 84 -10 l58 -6 -58 68 c-33 38 -61 70 -64 73 -3 3 -9 12
-15 21 -5 8 -37 56 -70 105 -57 86 -221 394 -208 394 3 0 1 6 -4 13 -6 6 -25
50 -42 97 -18 47 -35 94 -40 105 -21 51 -106 325 -116 370 -2 11 -11 45 -19
77 -8 31 -17 67 -20 80 -2 12 -9 41 -14 63 -6 22 -14 56 -17 75 -3 19 -10 53
-15 75 -8 39 -15 78 -25 153 -3 20 -8 55 -11 77 -10 64 -53 193 -86 254 -62
115 -179 242 -279 300 -72 42 -140 74 -184 86 -27 7 -57 16 -65 18 -33 12
-226 28 -234 20z"/>
<path d="M1728 3517 c-51 -45 -101 -93 -113 -109 -69 -86 -115 -190 -142 -318
-7 -31 -7 -186 0 -220 3 -14 8 -43 12 -65 37 -213 151 -427 315 -593 61 -62
221 -182 242 -182 3 0 -9 15 -26 34 -50 52 -107 155 -189 336 -18 39 -74 211
-81 250 -10 48 -16 80 -22 108 -18 88 -25 298 -12 401 5 36 10 86 13 110 4 36
10 76 20 121 1 3 7 32 14 65 7 33 15 68 17 78 8 25 -7 21 -48 -16z"/>
</g>
</svg>
